HIERARCHY
ROOT Hips
{
	OFFSET 0.000000 0.000000 0.000000
	CHANNELS 6 Xposition Yposition Zposition Yrotation Xrotation Zrotation
	JOINT Chest
	{
		OFFSET 0.000000 -0.009281 11.569106
		CHANNELS 3 Yrotation Xrotation Zrotation
		JOINT Chest2
		{
			OFFSET -0.000000 0.016865 9.269641
			CHANNELS 3 Yrotation Xrotation Zrotation
			JOINT Chest3
			{
				OFFSET -0.000000 0.000001 8.374491
				CHANNELS 3 Yrotation Xrotation Zrotation
				JOINT Chest4
				{
					OFFSET -0.000000 0.000001 8.374493
					CHANNELS 3 Yrotation Xrotation Zrotation
					JOINT Neck
					{
						OFFSET -0.000000 0.000002 12.152554
						CHANNELS 3 Yrotation Xrotation Zrotation
						JOINT Head
						{
							OFFSET -0.000000 0.040101 7.802319
							CHANNELS 3 Yrotation Xrotation Zrotation
							End Site
							{
								OFFSET -0.000000 0.020947 14.853096
							}
						}
					}
					JOINT RightCollar
					{
						OFFSET 2.894404 0.000001 6.791374
						CHANNELS 3 Yrotation Xrotation Zrotation
						JOINT RightShoulder
						{
							OFFSET 13.574684 0.000001 0.000000
							CHANNELS 3 Yrotation Xrotation Zrotation
							JOINT RightElbow
							{
								OFFSET 23.923903 0.000002 0.000000
								CHANNELS 3 Yrotation Xrotation Zrotation
								JOINT RightWrist
								{
									OFFSET 19.846718 0.012767 0.000000
									CHANNELS 3 Yrotation Xrotation Zrotation
									End Site
									{
										OFFSET 14.973145 0.000001 0.000000
									}
								}
							}
						}
					}
					JOINT LeftCollar
					{
						OFFSET -2.894404 0.000001 6.791374
						CHANNELS 3 Yrotation Xrotation Zrotation
						JOINT LeftShoulder
						{
							OFFSET -13.574684 -0.000001 0.000000
							CHANNELS 3 Yrotation Xrotation Zrotation
							JOINT LeftElbow
							{
								OFFSET -23.923903 -0.000002 0.000000
								CHANNELS 3 Yrotation Xrotation Zrotation
								JOINT LeftWrist
								{
									OFFSET -19.846718 0.012763 0.000000
									CHANNELS 3 Yrotation Xrotation Zrotation
									End Site
									{
										OFFSET -14.973145 -0.000001 0.000000
									}
								}
							}
						}
					}
				}
			}
		}
	}
	JOINT RightHip
	{
		OFFSET 9.469263 0.004643 0.045487
		CHANNELS 3 Yrotation Xrotation Zrotation
		JOINT RightKnee
		{
			OFFSET 0.000000 0.002661 -40.478676
			CHANNELS 3 Yrotation Xrotation Zrotation
			JOINT RightAnkle
			{
				OFFSET 0.000000 0.049106 -35.224068
				CHANNELS 3 Yrotation Xrotation Zrotation
				JOINT RightToe
				{
					OFFSET -0.000001 12.539529 -6.151390
					CHANNELS 3 Yrotation Xrotation Zrotation
					End Site
					{
						OFFSET -0.000001 5.044994 -1.291870
					}
				}
			}
		}
	}
	JOINT LeftHip
	{
		OFFSET -9.469263 0.004641 0.045487
		CHANNELS 3 Yrotation Xrotation Zrotation
		JOINT LeftKnee
		{
			OFFSET 0.000000 0.002661 -40.478676
			CHANNELS 3 Yrotation Xrotation Zrotation
			JOINT LeftAnkle
			{
				OFFSET 0.000000 0.049106 -35.224068
				CHANNELS 3 Yrotation Xrotation Zrotation
				JOINT LeftToe
				{
					OFFSET -0.000001 12.539529 -6.151390
					CHANNELS 3 Yrotation Xrotation Zrotation
					End Site
					{
						OFFSET -0.000001 5.044994 -1.291870
					}
				}
			}
		}
	}
}
MOTION
Frames: 11
Frame Time: 0.016667
13.129369 5.796559 83.033096 -5.685918 -1.616389 -105.906099 -0.497286 -4.672695 0.142202 -0.219513 -2.074376 0.062560 -0.219513 -2.074377 0.062556 -0.164405 -1.555805 0.046168 0.721690 -15.617318 -3.143427 0.185459 7.152756 -5.599232 -0.345343 28.791689 -1.270533 22.309177 27.819405 47.666705 -3.813625 -2.079066 27.113049 33.343870 -16.078694 -28.188399 1.908175 23.058118 -1.308254 -23.183749 31.681737 -48.619933 1.087217 5.453254 -23.075171 -40.526033 -24.985423 36.246765 -0.703379 -9.480164 -3.769660 2.265605 -2.818616 -7.318732 -1.319075 5.757569 0.478764 -0.034008 -0.017502 -0.009966 -0.538741 -9.981089 1.154735 0.669095 -1.351817 0.627304 -1.784033 4.813130 -0.037978 0.025332 0.011999 0.008445 
13.098559 5.804907 83.034554 -5.668465 -1.607573 -105.904077 -0.506559 -4.649263 0.155300 -0.222547 -2.063553 0.068598 -0.222547 -2.063553 0.068597 -0.166660 -1.547690 0.050691 0.717599 -15.577739 -3.152833 0.172778 7.225777 -5.619285 -0.395106 28.687587 -1.353330 22.520191 27.768798 47.856823 -2.596817 -0.192363 27.677067 33.600183 -15.518627 -27.906391 1.926406 22.930197 -1.362102 -23.356684 31.773955 -48.722045 0.527339 6.892988 -23.865260 -40.584639 -23.200763 34.854872 -0.710545 -9.446818 -3.795202 2.271867 -2.800655 -7.313646 -1.313597 5.727652 0.496111 -0.038068 -0.020205 -0.011573 -0.532730 -9.935721 1.172313 0.654406 -1.353911 0.578199 -1.779675 4.784365 -0.016391 0.025194 0.010669 0.010214 
13.067084 5.814553 83.037552 -5.665622 -1.601462 -105.896496 -0.512051 -4.626326 0.166247 -0.224369 -2.053362 0.073602 -0.224369 -2.053361 0.073603 -0.168012 -1.540050 0.054442 0.706136 -15.553324 -3.161570 0.147188 7.270371 -5.640453 -0.390751 28.570524 -1.357688 22.837221 27.825023 48.164619 -1.071380 2.075835 28.187026 33.809969 -14.809221 -27.399121 1.908401 22.806036 -1.444489 -23.840454 31.939081 -49.085684 -0.157011 8.861511 -24.454236 -40.763631 -21.120885 33.233399 -0.716651 -9.421416 -3.806765 2.273008 -2.794876 -7.311291 -1.305237 5.699159 0.499534 -0.041278 -0.019247 -0.012289 -0.530782 -9.899488 1.183930 0.643995 -1.364207 0.539716 -1.777164 4.754384 0.001480 0.025388 0.012214 0.010969 
13.031597 5.825786 83.042976 -5.670726 -1.600453 -105.895690 -0.510374 -4.602020 0.179438 -0.223148 -2.043300 0.078573 -0.223148 -2.043300 0.078574 -0.167080 -1.532503 0.058177 0.691203 -15.542454 -3.169949 0.115791 7.289697 -5.661908 -0.351196 28.445322 -1.319941 23.310869 28.007913 48.586131 0.909239 4.856040 28.734435 33.822649 -13.933194 -26.658336 1.810580 22.670142 -1.645813 -24.574206 32.351860 -49.612336 -0.939133 11.024766 -24.900819 -41.084237 -18.676512 31.317049 -0.721849 -9.385998 -3.775783 2.275641 -2.817272 -7.327560 -1.299356 5.672867 0.480596 -0.042511 -0.011443 -0.012319 -0.527530 -9.862771 1.206663 0.635342 -1.388860 0.510231 -1.777249 4.722191 0.003390 0.025773 0.018856 0.011724 
12.989525 5.837931 83.048744 -5.675530 -1.598471 -105.900717 -0.492910 -4.578564 0.189033 -0.215658 -2.033724 0.081575 -0.215658 -2.033724 0.081576 -0.161455 -1.525322 0.060458 0.667878 -15.535274 -3.178847 0.068684 7.301774 -5.687351 -0.355237 28.330136 -1.329651 23.912538 28.147186 49.076142 3.448671 8.329778 29.452920 33.551730 -13.062308 -25.886217 1.657509 22.483120 -1.908624 -25.538583 33.004587 -50.265408 -1.806590 13.260337 -25.264890 -41.508893 -15.824753 28.979492 -0.732400 -9.330966 -3.727473 2.285377 -2.867727 -7.354681 -1.298657 5.655083 0.464582 -0.041841 -0.003636 -0.011901 -0.524793 -9.818235 1.242796 0.625525 -1.420404 0.473720 -1.779342 4.691144 0.002069 0.027914 0.023018 0.012799 
12.945851 5.851541 83.052635 -5.677574 -1.594106 -105.909801 -0.468577 -4.555162 0.206245 -0.205305 -2.023083 0.088654 -0.205305 -2.023084 0.088654 -0.153670 -1.517343 0.065804 0.648649 -15.530540 -3.198000 0.025532 7.309172 -5.730356 -0.399520 28.223125 -1.367037 24.513050 28.210910 49.539618 6.102059 11.987161 30.357933 33.391087 -12.005244 -25.088443 1.501828 22.292950 -2.153321 -26.650287 33.690253 -50.984514 -2.829431 15.629083 -25.605165 -41.806758 -12.629003 26.263266 -0.746996 -9.268915 -3.707065 2.295729 -2.924720 -7.360650 -1.299554 5.644820 0.463826 -0.039436 -0.002071 -0.011773 -0.522753 -9.765508 1.279806 0.611115 -1.461208 0.431003 -1.776211 4.669500 0.010072 0.028610 0.022371 0.013397 
12.902343 5.868120 83.054680 -5.680748 -1.591727 -105.923209 -0.447418 -4.523083 0.225093 -0.195803 -2.008143 0.097028 -0.195803 -2.008143 0.097028 -0.146518 -1.506138 0.072118 0.639143 -15.535678 -3.218812 0.000316 7.298599 -5.772593 -0.441747 28.070148 -1.367915 25.076415 28.293656 49.984444 8.665791 15.509550 31.356131 33.356950 -10.808914 -24.247925 1.336128 22.143996 -2.393207 -27.706903 34.239615 -51.597814 -4.035152 18.213934 -25.983167 -41.828140 -9.249063 23.210878 -0.769206 -9.205861 -3.717431 2.317206 -2.988345 -7.325968 -1.304754 5.638807 0.456487 -0.038058 -0.002723 -0.012745 -0.523412 -9.709904 1.311575 0.598774 -1.513994 0.397091 -1.768151 4.661132 0.020196 0.026361 0.016830 0.013852 
12.858621 5.886034 83.056602 -5.702450 -1.594741 -105.928837 -0.435673 -4.492913 0.256206 -0.190548 -1.994426 0.110823 -0.190548 -1.994426 0.110824 -0.142535 -1.495855 0.082487 0.645172 -15.548637 -3.250328 0.000473 7.273842 -5.828849 -0.443348 27.894639 -1.327288 25.670074 28.518159 50.379376 11.304382 18.857297 32.504122 33.083913 -9.593556 -23.210412 1.209111 21.938776 -2.571711 -28.856736 34.670187 -52.268839 -5.356492 21.026495 -26.463406 -41.813858 -5.835382 20.005906 -0.793576 -9.154272 -3.733388 2.342781 -3.069140 -7.279156 -1.315807 5.640782 0.437604 -0.033517 -0.002946 -0.013525 -0.527065 -9.665019 1.320502 0.592495 -1.581903 0.379290 -1.757755 4.660617 0.029712 0.021104 0.010988 0.014238 
12.811875 5.906288 83.058769 -5.751463 -1.602113 -105.913756 -0.427432 -4.462726 0.279962 -0.187133 -1.981595 0.120801 -0.187133 -1.981595 0.120801 -0.139944 -1.486233 0.089984 0.654552 -15.573347 -3.280426 0.007915 7.227463 -5.880875 -0.351792 27.706874 -1.171925 26.384138 28.911276 50.768110 14.218243 22.189314 33.863928 32.341748 -8.358556 -21.848035 1.104733 21.670484 -2.677979 -30.175841 35.049437 -53.071676 -6.793961 23.939207 -27.047781 -41.877334 -2.419392 16.735775 -0.821112 -9.114560 -3.742627 2.373336 -3.181318 -7.249445 -1.334109 5.656745 0.407230 -0.024576 -0.001493 -0.013531 -0.534714 -9.633686 1.300337 0.591392 -1.669792 0.364954 -1.745787 4.667668 0.046223 0.015045 0.005118 0.013763 
12.759984 5.925196 83.059700 -5.819685 -1.617717 -105.878662 -0.422698 -4.433543 0.291757 -0.185548 -1.968800 0.125136 -0.185548 -1.968800 0.125135 -0.138744 -1.476638 0.093242 0.670159 -15.608861 -3.307890 0.028425 7.161391 -5.925385 -0.157595 27.562603 -0.936602 27.333975 29.370377 51.288092 17.347922 25.518529 35.430182 31.275952 -6.935991 -20.155639 0.947470 21.395940 -2.861206 -31.650185 35.473124 -53.952579 -8.324784 26.753807 -27.689875 -42.061808 1.105241 13.443859 -0.833194 -9.083099 -3.739942 2.391710 -3.316124 -7.247638 -1.356313 5.685027 0.367052 -0.010472 -0.001579 -0.011539 -0.538066 -9.610226 1.269939 0.598186 -1.774266 0.344645 -1.736103 4.685483 0.059235 0.007144 -0.005914 0.013241 
12.701695 5.943843 83.058807 -5.902283 -1.641334 -105.826500 -0.420440 -4.397880 0.301586 -0.184746 -1.952788 0.127527 -0.184746 -1.952787 0.127530 -0.138137 -1.464629 0.095048 0.691514 -15.660263 -3.340154 0.058587 7.065932 -5.976284 0.069285 27.434420 -0.749850 28.595118 29.782999 52.034942 20.261942 28.601050 37.034167 30.321477 -5.029913 -18.205989 0.689416 21.137383 -3.210004 -33.200525 36.007367 -54.851668 -10.027418 29.413349 -28.404723 -42.299853 4.602339 10.266626 -0.845022 -9.050457 -3.729321 2.425327 -3.482033 -7.258674 -1.392455 5.727692 0.321274 0.005606 -0.001527 -0.009427 -0.532976 -9.586478 1.242260 0.604631 -1.902972 0.302900 -1.722093 4.721903 0.072800 -0.002989 -0.024358 0.012952 
